<?xml version="1.0" ?><svg viewBox="0 0 128 128" xmlns="http://www.w3.org/2000/svg"><title/><g data-name="Layer 45" id="Layer_45"><rect height="7.85" rx="1" ry="1" width="96.02" x="15.99" y="100.49"/><rect height="31.26" rx="1" ry="1" width="14.91" x="19.49" y="66.23"/><rect height="49.91" rx="1" ry="1" width="14.92" x="44.19" y="47.58"/><rect height="40.58" rx="1" ry="1" width="14.92" x="68.89" y="56.91"/><rect height="59.23" rx="1" ry="1" width="14.91" x="93.6" y="38.26"/><circle cx="26.32" cy="54.03" r="6.44"/><circle cx="51.65" cy="34.7" r="6.44"/><circle cx="76.35" cy="43.27" r="6.44"/><circle cx="101.06" cy="26.11" r="6.44"/><path d="M44.85,41.23,34.39,49.11a9.51,9.51,0,0,0-2-2.28l10.7-8.06A9.39,9.39,0,0,0,44.85,41.23Z"/><path d="M68,38.92A9.36,9.36,0,0,0,67,41.84l-6.49-3.92a9.72,9.72,0,0,0,.56-3.16Z"/><path d="M94.43,32.82l-9.28,7a9.21,9.21,0,0,0-1.54-2.6l9-6.84A9,9,0,0,0,94.43,32.82Z"/></g></svg>